<svg width="164" height="164" viewBox="0 0 164 164" fill="none" xmlns="http://www.w3.org/2000/svg">
<path d="M82.0149 163.964H81.656C36.79 163.964 0.287781 127.451 0.287781 82.5717V82.2128C0.287781 37.3336 36.79 0.820581 81.656 0.820581H82.0149C126.881 0.820581 163.383 37.3336 163.383 82.2128V82.5717C163.383 127.451 126.881 163.964 82.0149 163.964ZM81.656 6.34282C39.8319 6.34282 5.80839 40.3764 5.80839 82.2128V82.5717C5.80839 124.408 39.8319 158.442 81.656 158.442H82.0149C123.839 158.442 157.863 124.408 157.863 82.5717V82.2128C157.863 40.3764 123.839 6.34282 82.0149 6.34282H81.656Z" fill="#00B0F2"/>
<path d="M32.8924 79.7058C33.1132 79.5954 33.3341 79.4905 33.5494 79.3911C37.2924 77.6571 41.0851 76.0336 44.8722 74.41C45.0765 74.41 45.4187 74.1725 45.6119 74.0952C45.9045 73.9682 46.1971 73.8468 46.4897 73.7197C47.0528 73.4768 47.6159 73.2393 48.1735 72.9963C49.2997 72.5159 50.4203 72.0354 51.5465 71.555C53.7934 70.5941 56.0403 69.6333 58.2872 68.6669C62.781 66.7452 67.2803 64.8179 71.7741 62.8962C76.2679 60.9744 80.7672 59.0471 85.2609 57.1254C89.7547 55.2037 94.254 53.2764 98.7478 51.3547C103.242 49.433 107.741 47.5057 112.235 45.5839C113.234 45.1532 114.316 44.5126 115.387 44.3249C116.287 44.1647 117.165 43.8555 118.07 43.6843C119.787 43.3585 121.68 43.2259 123.326 43.9383C123.894 44.1868 124.419 44.5347 124.855 44.971C126.942 47.0363 126.649 50.4269 126.207 53.3316C123.132 73.5761 120.057 93.8262 116.977 114.071C116.557 116.848 115.983 119.897 113.791 121.653C111.936 123.138 109.298 123.304 107.007 122.674C104.716 122.039 102.695 120.708 100.713 119.4C92.4929 113.955 84.2673 108.51 76.0471 103.065C74.0928 101.773 71.9177 100.083 71.9398 97.736C71.9508 96.3223 72.7954 95.0632 73.6566 93.9422C80.8003 84.6206 91.1073 78.2148 98.7754 69.324C99.8574 68.0705 100.708 65.8064 99.2226 65.083C98.3393 64.6522 97.3234 65.2376 96.5174 65.7954C86.3816 72.8362 76.2513 79.8825 66.1155 86.9234C62.8087 89.2206 59.3417 91.5842 55.3558 92.1475C51.7895 92.6555 48.2011 91.6615 44.7508 90.6454C41.858 89.795 38.9706 88.9225 36.0943 88.0224C34.5651 87.5474 32.9862 87.0338 31.8048 85.957C30.6234 84.8801 29.9445 83.0689 30.6566 81.6331C31.1038 80.733 31.9705 80.1642 32.8814 79.7003L32.8924 79.7058Z" fill="#00B0F2"/>
</svg>
