<svg width="164" height="164" viewBox="0 0 164 164" fill="none" xmlns="http://www.w3.org/2000/svg">
<path d="M82.3244 163.424H81.9656C37.0996 163.424 0.59729 126.911 0.59729 82.0313V81.6724C0.59729 36.7932 37.0996 0.280197 81.9656 0.280197H82.3244C127.19 0.280197 163.693 36.7932 163.693 81.6724V82.0313C163.693 126.911 127.19 163.424 82.3244 163.424ZM81.9656 5.80243C40.1414 5.80243 6.1179 39.836 6.1179 81.6724V82.0313C6.1179 123.868 40.1414 157.901 81.9656 157.901H82.3244C124.149 157.901 158.172 123.868 158.172 82.0313V81.6724C158.172 39.836 124.149 5.80243 82.3244 5.80243H81.9656Z" fill="url(#paint0_linear_1_824)"/>
<path d="M106.527 35.109L57.7687 35.109C44.2984 35.109 33.34 46.0706 33.34 59.5449V104.165C33.34 117.639 44.2984 128.601 57.7687 128.601H106.527C119.997 128.601 130.955 117.639 130.955 104.165V59.5449C130.955 46.0706 119.997 35.109 106.527 35.109ZM41.9577 59.5449C41.9577 50.8253 49.0517 43.7292 57.7687 43.7292H106.527C115.244 43.7292 122.338 50.8253 122.338 59.5449V104.165C122.338 112.884 115.244 119.98 106.527 119.98H57.7687C49.0517 119.98 41.9577 112.884 41.9577 104.165V59.5449Z" fill="url(#paint1_linear_1_824)"/>
<path d="M82.1478 104.579C94.6741 104.579 104.871 94.3847 104.871 81.8492C104.871 69.3138 94.6796 59.1197 82.1478 59.1197C69.6161 59.1197 59.425 69.3138 59.425 81.8492C59.425 94.3847 69.6161 104.579 82.1478 104.579ZM82.1478 67.7454C89.9264 67.7454 96.253 74.0739 96.253 81.8548C96.253 89.6356 89.9264 95.9641 82.1478 95.9641C74.3693 95.9641 68.0427 89.6356 68.0427 81.8548C68.0427 74.0739 74.3693 67.7454 82.1478 67.7454Z" fill="url(#paint2_linear_1_824)"/>
<path d="M106.974 62.792C110.347 62.792 113.096 60.0474 113.096 56.6678C113.096 53.2882 110.353 50.5437 106.974 50.5437C103.595 50.5437 100.852 53.2882 100.852 56.6678C100.852 60.0474 103.595 62.792 106.974 62.792Z" fill="url(#paint3_linear_1_824)"/>
<defs>
<linearGradient id="paint0_linear_1_824" x1="24.4574" y1="139.556" x2="139.867" y2="24.1813" gradientUnits="userSpaceOnUse">
<stop stop-color="#FAAD4F"/>
<stop offset="0.35" stop-color="#DD2A7B"/>
<stop offset="0.62" stop-color="#9537B0"/>
<stop offset="1" stop-color="#515BD4"/>
</linearGradient>
<linearGradient id="paint1_linear_1_824" x1="41.5381" y1="122.471" x2="122.776" y2="41.2626" gradientUnits="userSpaceOnUse">
<stop stop-color="#FAAD4F"/>
<stop offset="0.35" stop-color="#DD2A7B"/>
<stop offset="0.62" stop-color="#9537B0"/>
<stop offset="1" stop-color="#515BD4"/>
</linearGradient>
<linearGradient id="paint2_linear_1_824" x1="66.0884" y1="97.919" x2="98.2112" y2="65.8" gradientUnits="userSpaceOnUse">
<stop stop-color="#FAAD4F"/>
<stop offset="0.35" stop-color="#DD2A7B"/>
<stop offset="0.62" stop-color="#9537B0"/>
<stop offset="1" stop-color="#515BD4"/>
</linearGradient>
<linearGradient id="paint3_linear_1_824" x1="102.646" y1="60.9972" x2="111.305" y2="52.3409" gradientUnits="userSpaceOnUse">
<stop stop-color="#FAAD4F"/>
<stop offset="0.35" stop-color="#DD2A7B"/>
<stop offset="0.62" stop-color="#9537B0"/>
<stop offset="1" stop-color="#515BD4"/>
</linearGradient>
</defs>
</svg>
