<svg width="164" height="164" viewBox="0 0 164 164" fill="none" xmlns="http://www.w3.org/2000/svg">
<path d="M81.8796 163.397H81.5209C36.6548 163.397 0.152557 126.884 0.152557 82.0047V81.6457C0.152557 36.7665 36.6548 0.253448 81.5209 0.253448H81.8796C126.746 0.253448 163.248 36.7665 163.248 81.6457V82.0047C163.248 126.884 126.746 163.397 81.8796 163.397ZM81.5209 5.77568C39.6967 5.77568 5.67317 39.8092 5.67317 81.6457V82.0047C5.67317 123.841 39.6967 157.875 81.5209 157.875H81.8796C123.704 157.875 157.727 123.841 157.727 82.0047V81.6457C157.727 39.8092 123.704 5.77568 81.8796 5.77568H81.5209Z" fill="url(#paint0_linear_1_848)"/>
<path d="M128.424 77.642C126.304 53.7197 106.159 34.8999 81.7031 34.8999C55.8335 34.8999 34.7834 55.9562 34.7834 81.8224C34.7834 91.3206 37.6265 100.173 42.5012 107.567L36.6549 120.528C35.1146 123.935 37.8583 127.723 41.5737 127.331L63.3415 125.012C68.9836 127.419 75.1887 128.75 81.7031 128.75C83.3592 128.75 85.0044 128.662 86.6164 128.496C88.107 128.336 89.5699 128.11 91.0163 127.823C112.353 123.504 128.485 104.651 128.612 82.093V81.8224C128.612 80.4197 128.551 79.0115 128.424 77.642ZM107.76 71.2583L97.9116 86.4555L92.7001 94.4959C91.5905 96.2078 89.2552 96.6165 87.6322 95.3795L78.9924 88.8301L73.665 84.7933C73.2344 84.4675 72.6327 84.4786 72.2131 84.8209L59.1403 95.4899C57.037 97.2073 54.1607 94.623 55.6347 92.3478L64.8597 78.1225L70.0711 70.0766C71.1807 68.3647 73.5105 67.9561 75.139 69.1875L83.5249 75.5491L88.8522 79.5803C89.2828 79.9117 89.8846 79.9006 90.3041 79.5527L104.249 68.1162C106.353 66.3932 109.24 68.9776 107.76 71.2583Z" fill="url(#paint1_linear_1_848)"/>
<defs>
<linearGradient id="paint0_linear_1_848" x1="24.0126" y1="139.53" x2="139.422" y2="24.1546" gradientUnits="userSpaceOnUse">
<stop stop-color="#0498FA"/>
<stop offset="0.34" stop-color="#5C5EFE"/>
<stop offset="0.73" stop-color="#F44E90"/>
<stop offset="1" stop-color="#FA8679"/>
</linearGradient>
<linearGradient id="paint1_linear_1_848" x1="37.621" y1="125.917" x2="114.877" y2="48.6841" gradientUnits="userSpaceOnUse">
<stop stop-color="#0498FA"/>
<stop offset="0.34" stop-color="#5C5EFE"/>
<stop offset="0.73" stop-color="#F44E90"/>
<stop offset="1" stop-color="#FA8679"/>
</linearGradient>
</defs>
</svg>
