<svg width="164" height="164" viewBox="0 0 164 164" fill="none" xmlns="http://www.w3.org/2000/svg">
<path d="M81.8061 163.404H81.4472C36.5812 163.404 0.0789185 126.89 0.0789185 82.0113V81.6524C0.0789185 36.7732 36.5812 0.260147 81.4472 0.260147H81.8061C126.672 0.260147 163.174 36.7732 163.174 81.6524V82.0113C163.174 126.89 126.672 163.404 81.8061 163.404ZM81.4472 5.78238C39.6231 5.78238 5.59953 39.8159 5.59953 81.6524V82.0113C5.59953 123.848 39.6231 157.881 81.4472 157.881H81.8061C123.63 157.881 157.654 123.848 157.654 82.0113V81.6524C157.654 39.8159 123.63 5.78238 81.8061 5.78238H81.4472Z" fill="#00E510"/>
<path d="M96.9877 104.885C76.8209 104.885 60.4136 88.4669 60.4081 68.2942C60.4136 63.1806 64.5762 59.0224 69.6773 59.0224C70.2017 59.0224 70.7206 59.0666 71.2175 59.1549C72.3105 59.3371 73.3485 59.7071 74.3035 60.2649C74.4415 60.3477 74.5354 60.4802 74.5575 60.6348L76.6884 74.0705C76.716 74.2251 76.6663 74.3852 76.5614 74.5012C75.3855 75.8044 73.8839 76.7432 72.2112 77.2126L71.4052 77.439L71.7088 78.2176C74.4581 85.2198 80.056 90.8139 87.0617 93.575L87.8401 93.8842L88.0664 93.078C88.5356 91.4047 89.4741 89.9027 90.777 88.7264C90.8709 88.6381 90.9978 88.5939 91.1248 88.5939C91.1524 88.5939 91.18 88.5939 91.2132 88.5994L104.645 90.731C104.805 90.7586 104.937 90.847 105.02 90.985C105.572 91.9404 105.942 92.9841 106.13 94.0775C106.218 94.5635 106.257 95.077 106.257 95.6127C106.257 100.721 102.1 104.879 96.9877 104.885Z" fill="#00E510"/>
<path d="M132.75 77.4059C131.663 65.1134 126.032 53.7099 116.895 45.2996C107.703 36.8395 95.7787 32.1787 83.3076 32.1787C55.9364 32.1787 33.6663 54.4554 33.6663 81.8347C33.6663 91.0237 36.2002 99.9752 40.9977 107.773L30.2987 131.463L64.5541 127.813C70.5109 130.254 76.8154 131.491 83.3021 131.491C85.008 131.491 86.758 131.402 88.5136 131.22C90.0594 131.054 91.6217 130.811 93.1564 130.502C116.078 125.869 132.811 105.52 132.943 82.0998V81.8347C132.943 80.3437 132.877 78.8527 132.745 77.4114L132.75 77.4059ZM65.8736 117.414L46.9213 119.436L52.58 106.895L51.4482 105.376C51.3654 105.266 51.2826 105.155 51.1887 105.028C46.2754 98.2413 43.6807 90.223 43.6807 81.8402C43.6807 59.9832 61.457 42.2016 83.3076 42.2016C103.778 42.2016 121.129 58.1774 122.802 78.571C122.89 79.6644 122.94 80.7634 122.94 81.8458C122.94 82.155 122.935 82.4587 122.929 82.7845C122.509 101.069 109.74 116.597 91.8756 120.551C90.512 120.855 89.1153 121.087 87.7241 121.236C86.2777 121.402 84.7927 121.484 83.3187 121.484C78.0686 121.484 72.9675 120.468 68.148 118.458C67.6125 118.243 67.0881 118.011 66.5967 117.773L65.8791 117.425L65.8736 117.414Z" fill="#00E510"/>
</svg>
