<svg width="164" height="164" viewBox="0 0 164 164" fill="none" xmlns="http://www.w3.org/2000/svg">
<path d="M81.9481 163.314C37.1042 163.314 0.623978 126.823 0.623978 81.9662C0.623978 37.1091 37.1042 0.618206 81.9481 0.618206C126.792 0.618206 163.272 37.1091 163.272 81.9662C163.272 126.823 126.792 163.314 81.9481 163.314ZM81.9481 6.14044C40.1516 6.14044 6.14459 40.1574 6.14459 81.9662C6.14459 123.775 40.1516 157.792 81.9481 157.792C123.745 157.792 157.752 123.775 157.752 81.9662C157.752 40.1574 123.745 6.14044 81.9481 6.14044Z" fill="#FF0209"/>
<path d="M131.418 65.6811C130.8 59.7116 129.47 53.1125 124.573 49.6446C120.78 46.9552 115.795 46.8559 111.141 46.8614C101.303 46.8669 91.4602 46.8779 81.6225 46.8834C72.1601 46.8945 62.6978 46.9 53.2355 46.9111C49.2827 46.9166 45.4404 46.6073 41.7691 48.3192C38.6169 49.7881 36.1492 52.5824 34.6641 55.6914C32.6049 60.0154 32.1744 64.9136 31.9259 69.6958C31.4677 78.4044 31.5174 87.135 32.0639 95.8381C32.4669 102.189 33.4882 109.207 38.3961 113.255C42.7463 116.839 48.8852 117.016 54.5273 117.021C72.4361 117.038 90.3506 117.055 108.265 117.066C110.562 117.071 112.957 117.027 115.298 116.773C119.902 116.276 124.291 114.956 127.25 111.543C130.237 108.103 131.004 103.315 131.457 98.7814C132.561 87.7811 132.55 76.6759 131.418 65.6811ZM71.2658 97.3843V66.5426L97.9635 81.9607L71.2658 97.3843Z" fill="#FF0209"/>
</svg>
